<?xml version="1.0" encoding="UTF-8" standalone="no"?>
<!DOCTYPE svg PUBLIC "-//W3C//DTD SVG 1.1//EN"
 "http://www.w3.org/Graphics/SVG/1.1/DTD/svg11.dtd">
<!-- Generated by graphviz version 2.47.0 (20210316.0004)
 -->
<!-- Title: G Pages: 1 -->
<svg width="106pt" height="66pt"
 viewBox="0.00 0.00 106.20 66.20" xmlns="http://www.w3.org/2000/svg" xmlns:xlink="http://www.w3.org/1999/xlink">
<g id="graph0" class="graph" transform="scale(1 1) rotate(0) translate(21.6 44.6)">
<title>G</title>
<polygon fill="#111111" stroke="transparent" points="-21.6,21.6 -21.6,-44.6 84.6,-44.6 84.6,21.6 -21.6,21.6"/>
<!-- piece.ts -->
<g id="node1" class="node">
<title>piece.ts</title>
<path fill="none" stroke="#cfffac" d="M55.33,-23C55.33,-23 7.67,-23 7.67,-23 3.83,-23 0,-19.17 0,-15.33 0,-15.33 0,-7.67 0,-7.67 0,-3.83 3.83,0 7.67,0 7.67,0 55.33,0 55.33,0 59.17,0 63,-3.83 63,-7.67 63,-7.67 63,-15.33 63,-15.33 63,-19.17 59.17,-23 55.33,-23"/>
<text text-anchor="middle" x="31.5" y="-7.8" font-family="Arial" font-size="14.00" fill="#cfffac">piece.ts</text>
</g>
</g>
</svg>
